<?xml version="1.0" encoding="UTF-8" standalone="no"?>
<!DOCTYPE svg PUBLIC "-//W3C//DTD SVG 1.1//EN" "http://www.w3.org/Graphics/SVG/1.1/DTD/svg11.dtd">
<svg version="1.1" xmlns="http://www.w3.org/2000/svg" xmlns:xlink="http://www.w3.org/1999/xlink" preserveAspectRatio="xMidYMid meet" viewBox="0 0 42 42" width="42" height="42"><defs><path d="M1.41 12.67C1.41 12.67 22.85 24.23 22.85 24.23C22.85 24.23 44.29 12.67 44.29 12.67C44.29 12.67 22.85 1.11 22.85 1.11C18.56 3.42 5.7 10.35 1.41 12.67ZM5.4 18.55C5.4 18.55 1.41 20.7 1.41 20.7C1.41 20.7 22.85 32.25 22.85 32.25C22.85 32.25 44.29 20.7 44.29 20.7C44.29 20.7 40.3 18.55 40.3 18.55C40.3 18.55 22.85 27.96 22.85 27.96C19.36 26.08 8.89 20.43 5.4 18.55ZM5.4 26.57C5.4 26.57 1.41 28.72 1.41 28.72C1.41 28.72 22.85 40.28 22.85 40.28C22.85 40.28 44.29 28.72 44.29 28.72C44.29 28.72 40.3 26.57 40.3 26.57C40.3 26.57 22.85 35.98 22.85 35.98C19.36 34.1 8.89 28.46 5.4 26.57Z" id="hkftSSpcl"></path></defs><g><g><g><use xlink:href="#hkftSSpcl" opacity="1" fill="#555555" fill-opacity="1"></use><g><use xlink:href="#hkftSSpcl" opacity="1" fill-opacity="0" stroke="#000000" stroke-width="1" stroke-opacity="0"></use></g></g></g></g></svg>